<?xml version="1.0" encoding="UTF-8" standalone="no"?>
<!DOCTYPE svg PUBLIC "-//W3C//DTD SVG 1.1//EN"
 "http://www.w3.org/Graphics/SVG/1.1/DTD/svg11.dtd">
<!-- Generated by graphviz version 2.40.1 (20161225.0304)
 -->
<!-- Title: G Pages: 1 -->
<svg width="442pt" height="388pt"
 viewBox="0.00 0.00 442.00 388.00" xmlns="http://www.w3.org/2000/svg" xmlns:xlink="http://www.w3.org/1999/xlink">
<g id="graph0" class="graph" transform="scale(1 1) rotate(0) translate(4 384)">
<title>G</title>
<polygon fill="#ffffff" stroke="transparent" points="-4,4 -4,-384 438,-384 438,4 -4,4"/>
<!-- A0 -->
<g id="node1" class="node">
<title>A0</title>
<polygon fill="none" stroke="#000000" points="0,-307 0,-339 64,-339 64,-307 0,-307"/>
<text text-anchor="start" x="21.4465" y="-320" font-family="Helvetica,sans-Serif" font-size="10.00" fill="#000000">User</text>
<polygon fill="none" stroke="#000000" points="0,-239 0,-307 64,-307 64,-239 0,-239"/>
<text text-anchor="start" x="9.7735" y="-288" font-family="Helvetica,sans-Serif" font-size="10.00" fill="#000000">username</text>
<text text-anchor="start" x="14.2175" y="-276" font-family="Helvetica,sans-Serif" font-size="10.00" fill="#000000">address</text>
<text text-anchor="start" x="18.1025" y="-264" font-family="Helvetica,sans-Serif" font-size="10.00" fill="#000000">phone</text>
<text text-anchor="start" x="20.0575" y="-252" font-family="Helvetica,sans-Serif" font-size="10.00" fill="#000000">email</text>
<polygon fill="none" stroke="#000000" points="0,-207 0,-239 64,-239 64,-207 0,-207"/>
<text text-anchor="start" x="14.7785" y="-220" font-family="Helvetica,sans-Serif" font-size="10.00" fill="#000000">create()</text>
</g>
<!-- A1 -->
<g id="node2" class="node">
<title>A1</title>
<polygon fill="none" stroke="#000000" points="114,-339 114,-371 212,-371 212,-339 114,-339"/>
<text text-anchor="start" x="133.556" y="-352" font-family="Helvetica,sans-Serif" font-size="10.00" fill="#000000">Administrator</text>
<polygon fill="none" stroke="#000000" points="114,-319 114,-339 212,-339 212,-319 114,-319"/>
<polygon fill="none" stroke="#000000" points="114,-263 114,-319 212,-319 212,-263 114,-263"/>
<text text-anchor="start" x="141.609" y="-300" font-family="Helvetica,sans-Serif" font-size="10.00" fill="#000000">approve()</text>
<text text-anchor="start" x="147.4485" y="-288" font-family="Helvetica,sans-Serif" font-size="10.00" fill="#000000">reject()</text>
<text text-anchor="start" x="123.827" y="-276" font-family="Helvetica,sans-Serif" font-size="10.00" fill="#000000">create_category()</text>
</g>
<!-- A0&#45;&gt;A1 -->
<g id="edge1" class="edge">
<title>A0&#45;&gt;A1</title>
<path fill="none" stroke="#000000" d="M73.5419,-286.953C86.3738,-291.263 100.6285,-296.0508 113.9191,-300.5148"/>
<polygon fill="none" stroke="#000000" points="74.6402,-283.6298 64.0462,-283.7636 72.4114,-290.2655 74.6402,-283.6298"/>
</g>
<!-- A3 -->
<g id="node4" class="node">
<title>A3</title>
<polygon fill="none" stroke="#000000" points="386,-232 386,-264 428,-264 428,-232 386,-232"/>
<text text-anchor="start" x="397.277" y="-245" font-family="Helvetica,sans-Serif" font-size="10.00" fill="#000000">Item</text>
<polygon fill="none" stroke="#000000" points="386,-200 386,-232 428,-232 428,-200 386,-200"/>
<text text-anchor="start" x="395.887" y="-213" font-family="Helvetica,sans-Serif" font-size="10.00" fill="#000000">extra</text>
</g>
<!-- A0&#45;&gt;A3 -->
<g id="edge3" class="edge">
<title>A0&#45;&gt;A3</title>
<path fill="none" stroke="#000000" d="M64.1052,-264.3632C79.1521,-260.6247 97.3868,-256.5332 114,-254 205.197,-240.094 313.7639,-234.8563 369.6491,-232.9795"/>
<polygon fill="#000000" stroke="#000000" points="379.7791,-232.6571 369.9273,-237.473 374.7816,-232.8162 369.7841,-232.9753 369.7841,-232.9753 369.7841,-232.9753 374.7816,-232.8162 369.6409,-228.4776 379.7791,-232.6571 379.7791,-232.6571"/>
<text text-anchor="middle" x="361.931" y="-238.6818" font-family="Helvetica,sans-Serif" font-size="10.00" fill="#000000">*</text>
<text text-anchor="middle" x="79.6942" y="-248.8338" font-family="Helvetica,sans-Serif" font-size="10.00" fill="#000000">1</text>
</g>
<!-- A4 -->
<g id="node5" class="node">
<title>A4</title>
<polygon fill="none" stroke="#000000" points="266,-348 266,-380 327,-380 327,-348 266,-348"/>
<text text-anchor="start" x="276.2185" y="-361" font-family="Helvetica,sans-Serif" font-size="10.00" fill="#000000">Category</text>
<polygon fill="none" stroke="#000000" points="266,-292 266,-348 327,-348 327,-292 266,-292"/>
<text text-anchor="start" x="292.611" y="-329" font-family="Helvetica,sans-Serif" font-size="10.00" fill="#000000">id</text>
<text text-anchor="start" x="283.997" y="-317" font-family="Helvetica,sans-Serif" font-size="10.00" fill="#000000">name</text>
<text text-anchor="start" x="275.9395" y="-305" font-family="Helvetica,sans-Serif" font-size="10.00" fill="#000000">attributes</text>
<polygon fill="none" stroke="#000000" points="266,-260 266,-292 327,-292 327,-260 266,-260"/>
<text text-anchor="start" x="279.2785" y="-273" font-family="Helvetica,sans-Serif" font-size="10.00" fill="#000000">create()</text>
</g>
<!-- A1&#45;&gt;A4 -->
<g id="edge5" class="edge">
<title>A1&#45;&gt;A4</title>
<path fill="none" stroke="#000000" d="M212.1464,-318.1086C226.2984,-318.4278 241.5779,-318.7724 255.1679,-319.079"/>
<polygon fill="#000000" stroke="#000000" points="265.1842,-319.3049 255.0852,-323.5782 260.1855,-319.1921 255.1868,-319.0793 255.1868,-319.0793 255.1868,-319.0793 260.1855,-319.1921 255.2883,-314.5804 265.1842,-319.3049 265.1842,-319.3049"/>
<text text-anchor="middle" x="246.8721" y="-324.3464" font-family="Helvetica,sans-Serif" font-size="10.00" fill="#000000">*</text>
<text text-anchor="middle" x="230.4586" y="-307.0671" font-family="Helvetica,sans-Serif" font-size="10.00" fill="#000000">*</text>
</g>
<!-- A2 -->
<g id="node3" class="node">
<title>A2</title>
<polygon fill="none" stroke="#000000" points="262,-172 262,-204 330,-204 330,-172 262,-172"/>
<text text-anchor="start" x="284.6065" y="-185" font-family="Helvetica,sans-Serif" font-size="10.00" fill="#000000">Base</text>
<polygon fill="none" stroke="#000000" points="262,-56 262,-172 330,-172 330,-56 262,-56"/>
<text text-anchor="start" x="292.111" y="-153" font-family="Helvetica,sans-Serif" font-size="10.00" fill="#000000">id</text>
<text text-anchor="start" x="276.828" y="-141" font-family="Helvetica,sans-Serif" font-size="10.00" fill="#000000">category</text>
<text text-anchor="start" x="283.497" y="-129" font-family="Helvetica,sans-Serif" font-size="10.00" fill="#000000">name</text>
<text text-anchor="start" x="271.8295" y="-117" font-family="Helvetica,sans-Serif" font-size="10.00" fill="#000000">description</text>
<text text-anchor="start" x="275.719" y="-105" font-family="Helvetica,sans-Serif" font-size="10.00" fill="#000000">publisher</text>
<text text-anchor="start" x="278.2175" y="-93" font-family="Helvetica,sans-Serif" font-size="10.00" fill="#000000">address</text>
<text text-anchor="start" x="282.1025" y="-81" font-family="Helvetica,sans-Serif" font-size="10.00" fill="#000000">phone</text>
<text text-anchor="start" x="284.0575" y="-69" font-family="Helvetica,sans-Serif" font-size="10.00" fill="#000000">email</text>
<polygon fill="none" stroke="#000000" points="262,0 262,-56 330,-56 330,0 262,0"/>
<text text-anchor="start" x="278.7785" y="-37" font-family="Helvetica,sans-Serif" font-size="10.00" fill="#000000">create()</text>
<text text-anchor="start" x="284.613" y="-25" font-family="Helvetica,sans-Serif" font-size="10.00" fill="#000000">edit()</text>
<text text-anchor="start" x="279.054" y="-13" font-family="Helvetica,sans-Serif" font-size="10.00" fill="#000000">delete()</text>
</g>
<!-- A2&#45;&gt;A3 -->
<g id="edge2" class="edge">
<title>A2&#45;&gt;A3</title>
<path fill="none" stroke="#000000" d="M337.0732,-150.1038C351.3148,-166.7831 366.9182,-185.0574 379.7653,-200.1035"/>
<polygon fill="none" stroke="#000000" points="339.3646,-147.3973 330.2094,-142.065 334.0411,-151.9427 339.3646,-147.3973"/>
</g>
<!-- A4&#45;&gt;A3 -->
<g id="edge4" class="edge">
<title>A4&#45;&gt;A3</title>
<path fill="none" stroke="#000000" d="M326.6251,-295.7207C340.7025,-284.5602 357.472,-271.2654 372.0423,-259.7142"/>
<polygon fill="#000000" stroke="#000000" points="379.8796,-253.5008 374.8391,-263.2396 375.9615,-256.6071 372.0434,-259.7133 372.0434,-259.7133 372.0434,-259.7133 375.9615,-256.6071 369.2478,-256.187 379.8796,-253.5008 379.8796,-253.5008"/>
<text text-anchor="middle" x="370.9267" y="-268.385" font-family="Helvetica,sans-Serif" font-size="10.00" fill="#000000">*</text>
<text text-anchor="middle" x="335.578" y="-274.8365" font-family="Helvetica,sans-Serif" font-size="10.00" fill="#000000">1</text>
</g>
</g>
</svg>
