<svg xmlns="http://www.w3.org/2000/svg" width="499.5" height="498">
<defs><marker id="arrow-filled" refX="6" refY="3" markerWidth="6" markerHeight="6" orient="auto"><path d="M0,0 6,3 0,6z" style="stroke: none; fill: black;"></path></marker><marker id="arrow-open" refX="6" refY="3" markerWidth="6" markerHeight="6" orient="auto"><path d="M0,0 6,3 0,6" style="stroke-width: 1; fill: none; stroke: black;"></path></marker></defs><rect width="62.5" height="38" style="stroke-width: 1; fill: none; stroke: black;" x="10" y="20"></rect><g><text fill="black" font-family="Helvetica,sans-Serif" x="41.25" y="39" style="text-anchor: middle; alignment-baseline: central;">:User</text></g><rect width="62.5" height="38" style="stroke-width: 1; fill: none; stroke: black;" x="10" y="440"></rect><g><text fill="black" font-family="Helvetica,sans-Serif" x="41.25" y="459" style="text-anchor: middle; alignment-baseline: central;">:User</text></g><path d="M41.25,58 v382" style="stroke-width: 1; fill: none; stroke: black;"></path><rect width="88" height="38" style="stroke-width: 1; fill: none; stroke: black;" x="153.25" y="20"></rect><g><text fill="black" font-family="Helvetica,sans-Serif" x="197.25" y="39" style="text-anchor: middle; alignment-baseline: central;">:Website</text></g><rect width="88" height="38" style="stroke-width: 1; fill: none; stroke: black;" x="153.25" y="440"></rect><g><text fill="black" font-family="Helvetica,sans-Serif" x="197.25" y="459" style="text-anchor: middle; alignment-baseline: central;">:Website</text></g><path d="M197.25,58 v382" style="stroke-width: 1; fill: none; stroke: black;"></path><rect width="96.5" height="38" style="stroke-width: 1; fill: none; stroke: black;" x="373" y="20"></rect><g><text fill="black" font-family="Helvetica,sans-Serif" x="421.25" y="39" style="text-anchor: middle; alignment-baseline: central;">:Database</text></g><rect width="96.5" height="38" style="stroke-width: 1; fill: none; stroke: black;" x="373" y="440"></rect><g><text fill="black" font-family="Helvetica,sans-Serif" x="421.25" y="459" style="text-anchor: middle; alignment-baseline: central;">:Database</text></g><path d="M421.25,58 v382" style="stroke-width: 1; fill: none; stroke: black;"></path><path d="M140.75,78 L140.75,85 L147.75,85 L140.75,78 L61.25,78 L61.25,106 L147.75,106 L147.75,85 Z" style="stroke-width: 1; fill: none; stroke: black;"></path><g><text fill="black" font-family="Helvetica,sans-Serif" x="104.5" y="92" style="text-anchor: middle; alignment-baseline: central;">Logged in</text></g><path d="M339.25,126 L339.25,133 L346.25,133 L339.25,126 L217.25,126 L217.25,154 L346.25,154 L346.25,133 Z" style="stroke-width: 1; fill: none; stroke: black;"></path><g><text fill="black" font-family="Helvetica,sans-Serif" x="281.75" y="140" style="text-anchor: middle; alignment-baseline: central;">Item List View</text></g><g><text fill="black" font-family="Helvetica,sans-Serif" x="119.25" y="179" style="text-anchor: middle; alignment-baseline: central;">Post New Item</text></g><path d="M41.25,192 h156" style="stroke-width: 1; fill: none; stroke: black;" marker-end="url(#arrow-filled)"></path><g><text fill="black" font-family="Helvetica,sans-Serif" x="309.25" y="217" style="text-anchor: middle; alignment-baseline: central;">Get User Info (username)</text></g><path d="M197.25,230 h224" style="stroke-width: 1; fill: none; stroke: black;" marker-end="url(#arrow-filled)"></path><g><text fill="black" font-family="Helvetica,sans-Serif" x="309.25" y="255" style="text-anchor: middle; alignment-baseline: central;">User Info</text></g><path d="M421.25,268 h-224" style="stroke-width: 1; fill: none; stroke: black;" stroke-dasharray="7,4" marker-end="url(#arrow-filled)"></path><g><text fill="black" font-family="Helvetica,sans-Serif" x="119.25" y="293" style="text-anchor: middle; alignment-baseline: central;">New Item View</text></g><path d="M197.25,306 h-156" style="stroke-width: 1; fill: none; stroke: black;" stroke-dasharray="7,4" marker-end="url(#arrow-filled)"></path><g><text fill="black" font-family="Helvetica,sans-Serif" x="119.25" y="331" style="text-anchor: middle; alignment-baseline: central;">Submit Item Info</text></g><path d="M41.25,344 h156" style="stroke-width: 1; fill: none; stroke: black;" marker-end="url(#arrow-filled)"></path><g><text fill="black" font-family="Helvetica,sans-Serif" x="309.25" y="369" style="text-anchor: middle; alignment-baseline: central;">Save Item Info</text></g><path d="M197.25,382 h224" style="stroke-width: 1; fill: none; stroke: black;" marker-end="url(#arrow-filled)"></path><g><text fill="black" font-family="Helvetica,sans-Serif" x="119.25" y="407" style="text-anchor: middle; alignment-baseline: central;">Item List View</text></g><path d="M197.25,420 h-156" style="stroke-width: 1; fill: none; stroke: black;" stroke-dasharray="7,4" marker-end="url(#arrow-filled)"></path></svg>