<svg xmlns="http://www.w3.org/2000/svg" width="389" height="336">
<defs><marker id="arrow-filled" refX="6" refY="3" markerWidth="6" markerHeight="6" orient="auto"><path d="M0,0 6,3 0,6z" style="stroke: none; fill: black;"></path></marker><marker id="arrow-open" refX="6" refY="3" markerWidth="6" markerHeight="6" orient="auto"><path d="M0,0 6,3 0,6" style="stroke-width: 1; fill: none; stroke: black;"></path></marker></defs><rect width="62.5" height="38" style="stroke-width: 1; fill: none; stroke: black;" x="10" y="20"></rect><g><text fill="black" font-family="Helvetica,sans-Serif" x="41.25" y="39" style="text-anchor: middle; alignment-baseline: central;">:User</text></g><rect width="62.5" height="38" style="stroke-width: 1; fill: none; stroke: black;" x="10" y="278"></rect><g><text fill="black" font-family="Helvetica,sans-Serif" x="41.25" y="297" style="text-anchor: middle; alignment-baseline: central;">:User</text></g><path d="M41.25,58 v220" style="stroke-width: 1; fill: none; stroke: black;"></path><rect width="88" height="38" style="stroke-width: 1; fill: none; stroke: black;" x="136.25" y="20"></rect><g><text fill="black" font-family="Helvetica,sans-Serif" x="180.25" y="39" style="text-anchor: middle; alignment-baseline: central;">:Website</text></g><rect width="88" height="38" style="stroke-width: 1; fill: none; stroke: black;" x="136.25" y="278"></rect><g><text fill="black" font-family="Helvetica,sans-Serif" x="180.25" y="297" style="text-anchor: middle; alignment-baseline: central;">:Website</text></g><path d="M180.25,58 v220" style="stroke-width: 1; fill: none; stroke: black;"></path><rect width="96.5" height="38" style="stroke-width: 1; fill: none; stroke: black;" x="262.5" y="20"></rect><g><text fill="black" font-family="Helvetica,sans-Serif" x="310.75" y="39" style="text-anchor: middle; alignment-baseline: central;">:Database</text></g><rect width="96.5" height="38" style="stroke-width: 1; fill: none; stroke: black;" x="262.5" y="278"></rect><g><text fill="black" font-family="Helvetica,sans-Serif" x="310.75" y="297" style="text-anchor: middle; alignment-baseline: central;">:Database</text></g><path d="M310.75,58 v220" style="stroke-width: 1; fill: none; stroke: black;"></path><path d="M140.75,78 L140.75,85 L147.75,85 L140.75,78 L61.25,78 L61.25,106 L147.75,106 L147.75,85 Z" style="stroke-width: 1; fill: none; stroke: black;"></path><g><text fill="black" font-family="Helvetica,sans-Serif" x="104.5" y="92" style="text-anchor: middle; alignment-baseline: central;">Logged in</text></g><g><text fill="black" font-family="Helvetica,sans-Serif" x="110.75" y="131" style="text-anchor: middle; alignment-baseline: central;">Show Item List</text></g><path d="M41.25,144 h139" style="stroke-width: 1; fill: none; stroke: black;" marker-end="url(#arrow-filled)"></path><g><text fill="black" font-family="Helvetica,sans-Serif" x="245.5" y="169" style="text-anchor: middle; alignment-baseline: central;">Get Item Info</text></g><path d="M180.25,182 h130.5" style="stroke-width: 1; fill: none; stroke: black;" marker-end="url(#arrow-filled)"></path><g><text fill="black" font-family="Helvetica,sans-Serif" x="245.5" y="207" style="text-anchor: middle; alignment-baseline: central;">Item Info</text></g><path d="M310.75,220 h-130.5" style="stroke-width: 1; fill: none; stroke: black;" stroke-dasharray="7,4" marker-end="url(#arrow-filled)"></path><g><text fill="black" font-family="Helvetica,sans-Serif" x="110.75" y="245" style="text-anchor: middle; alignment-baseline: central;">Item List View</text></g><path d="M180.25,258 h-139" style="stroke-width: 1; fill: none; stroke: black;" stroke-dasharray="7,4" marker-end="url(#arrow-filled)"></path></svg>