<svg xmlns="http://www.w3.org/2000/svg" width="474" height="336">
<defs><marker id="arrow-filled" refX="6" refY="3" markerWidth="6" markerHeight="6" orient="auto"><path d="M0,0 6,3 0,6z" style="stroke: none; fill: black;"></path></marker><marker id="arrow-open" refX="6" refY="3" markerWidth="6" markerHeight="6" orient="auto"><path d="M0,0 6,3 0,6" style="stroke-width: 1; fill: none; stroke: black;"></path></marker></defs><rect width="62.5" height="38" style="stroke-width: 1; fill: none; stroke: black;" x="10" y="20"></rect><g><text fill="black" font-family="Helvetica,sans-Serif" x="41.25" y="39" style="text-anchor: middle; alignment-baseline: central;">:User</text></g><rect width="62.5" height="38" style="stroke-width: 1; fill: none; stroke: black;" x="10" y="278"></rect><g><text fill="black" font-family="Helvetica,sans-Serif" x="41.25" y="297" style="text-anchor: middle; alignment-baseline: central;">:User</text></g><path d="M41.25,58 v220" style="stroke-width: 1; fill: none; stroke: black;"></path><rect width="88" height="38" style="stroke-width: 1; fill: none; stroke: black;" x="178.75" y="20"></rect><g><text fill="black" font-family="Helvetica,sans-Serif" x="222.75" y="39" style="text-anchor: middle; alignment-baseline: central;">:Website</text></g><rect width="88" height="38" style="stroke-width: 1; fill: none; stroke: black;" x="178.75" y="278"></rect><g><text fill="black" font-family="Helvetica,sans-Serif" x="222.75" y="297" style="text-anchor: middle; alignment-baseline: central;">:Website</text></g><path d="M222.75,58 v220" style="stroke-width: 1; fill: none; stroke: black;"></path><rect width="96.5" height="38" style="stroke-width: 1; fill: none; stroke: black;" x="347.5" y="20"></rect><g><text fill="black" font-family="Helvetica,sans-Serif" x="395.75" y="39" style="text-anchor: middle; alignment-baseline: central;">:Database</text></g><rect width="96.5" height="38" style="stroke-width: 1; fill: none; stroke: black;" x="347.5" y="278"></rect><g><text fill="black" font-family="Helvetica,sans-Serif" x="395.75" y="297" style="text-anchor: middle; alignment-baseline: central;">:Database</text></g><path d="M395.75,58 v220" style="stroke-width: 1; fill: none; stroke: black;"></path><path d="M140.75,78 L140.75,85 L147.75,85 L140.75,78 L61.25,78 L61.25,106 L147.75,106 L147.75,85 Z" style="stroke-width: 1; fill: none; stroke: black;"></path><g><text fill="black" font-family="Helvetica,sans-Serif" x="104.5" y="92" style="text-anchor: middle; alignment-baseline: central;">Logged in</text></g><g><text fill="black" font-family="Helvetica,sans-Serif" x="132" y="131" style="text-anchor: middle; alignment-baseline: central;">View User Info (id)</text></g><path d="M41.25,144 h181.5" style="stroke-width: 1; fill: none; stroke: black;" marker-end="url(#arrow-filled)"></path><g><text fill="black" font-family="Helvetica,sans-Serif" x="309.25" y="169" style="text-anchor: middle; alignment-baseline: central;">Get User Info (id)</text></g><path d="M222.75,182 h173" style="stroke-width: 1; fill: none; stroke: black;" marker-end="url(#arrow-filled)"></path><g><text fill="black" font-family="Helvetica,sans-Serif" x="309.25" y="207" style="text-anchor: middle; alignment-baseline: central;">User Info</text></g><path d="M395.75,220 h-173" style="stroke-width: 1; fill: none; stroke: black;" stroke-dasharray="7,4" marker-end="url(#arrow-filled)"></path><g><text fill="black" font-family="Helvetica,sans-Serif" x="132" y="245" style="text-anchor: middle; alignment-baseline: central;">User Info View</text></g><path d="M222.75,258 h-181.5" style="stroke-width: 1; fill: none; stroke: black;" stroke-dasharray="7,4" marker-end="url(#arrow-filled)"></path></svg>