<svg xmlns="http://www.w3.org/2000/svg" width="474" height="384">
<defs><marker id="arrow-filled" refX="6" refY="3" markerWidth="6" markerHeight="6" orient="auto"><path d="M0,0 6,3 0,6z" style="stroke: none; fill: black;"></path></marker><marker id="arrow-open" refX="6" refY="3" markerWidth="6" markerHeight="6" orient="auto"><path d="M0,0 6,3 0,6" style="stroke-width: 1; fill: none; stroke: black;"></path></marker></defs><rect width="62.5" height="38" style="stroke-width: 1; fill: none; stroke: black;" x="10" y="20"></rect><g><text fill="black" font-family="Helvetica,sans-Serif" x="41.25" y="39" style="text-anchor: middle; alignment-baseline: central;">:User</text></g><rect width="62.5" height="38" style="stroke-width: 1; fill: none; stroke: black;" x="10" y="326"></rect><g><text fill="black" font-family="Helvetica,sans-Serif" x="41.25" y="345" style="text-anchor: middle; alignment-baseline: central;">:User</text></g><path d="M41.25,58 v268" style="stroke-width: 1; fill: none; stroke: black;"></path><rect width="88" height="38" style="stroke-width: 1; fill: none; stroke: black;" x="178.75" y="20"></rect><g><text fill="black" font-family="Helvetica,sans-Serif" x="222.75" y="39" style="text-anchor: middle; alignment-baseline: central;">:Website</text></g><rect width="88" height="38" style="stroke-width: 1; fill: none; stroke: black;" x="178.75" y="326"></rect><g><text fill="black" font-family="Helvetica,sans-Serif" x="222.75" y="345" style="text-anchor: middle; alignment-baseline: central;">:Website</text></g><path d="M222.75,58 v268" style="stroke-width: 1; fill: none; stroke: black;"></path><rect width="96.5" height="38" style="stroke-width: 1; fill: none; stroke: black;" x="347.5" y="20"></rect><g><text fill="black" font-family="Helvetica,sans-Serif" x="395.75" y="39" style="text-anchor: middle; alignment-baseline: central;">:Database</text></g><rect width="96.5" height="38" style="stroke-width: 1; fill: none; stroke: black;" x="347.5" y="326"></rect><g><text fill="black" font-family="Helvetica,sans-Serif" x="395.75" y="345" style="text-anchor: middle; alignment-baseline: central;">:Database</text></g><path d="M395.75,58 v268" style="stroke-width: 1; fill: none; stroke: black;"></path><path d="M140.75,78 L140.75,85 L147.75,85 L140.75,78 L61.25,78 L61.25,106 L147.75,106 L147.75,85 Z" style="stroke-width: 1; fill: none; stroke: black;"></path><g><text fill="black" font-family="Helvetica,sans-Serif" x="104.5" y="92" style="text-anchor: middle; alignment-baseline: central;">Logged in</text></g><path d="M364.75,126 L364.75,133 L371.75,133 L364.75,126 L242.75,126 L242.75,154 L371.75,154 L371.75,133 Z" style="stroke-width: 1; fill: none; stroke: black;"></path><g><text fill="black" font-family="Helvetica,sans-Serif" x="307.25" y="140" style="text-anchor: middle; alignment-baseline: central;">Item List View</text></g><g><text fill="black" font-family="Helvetica,sans-Serif" x="132" y="179" style="text-anchor: middle; alignment-baseline: central;">Show Item Info (id)</text></g><path d="M41.25,192 h181.5" style="stroke-width: 1; fill: none; stroke: black;" marker-end="url(#arrow-filled)"></path><g><text fill="black" font-family="Helvetica,sans-Serif" x="309.25" y="217" style="text-anchor: middle; alignment-baseline: central;">Get Item Info (id)</text></g><path d="M222.75,230 h173" style="stroke-width: 1; fill: none; stroke: black;" marker-end="url(#arrow-filled)"></path><g><text fill="black" font-family="Helvetica,sans-Serif" x="309.25" y="255" style="text-anchor: middle; alignment-baseline: central;">Item Info</text></g><path d="M395.75,268 h-173" style="stroke-width: 1; fill: none; stroke: black;" stroke-dasharray="7,4" marker-end="url(#arrow-filled)"></path><g><text fill="black" font-family="Helvetica,sans-Serif" x="132" y="293" style="text-anchor: middle; alignment-baseline: central;">Item Info View</text></g><path d="M222.75,306 h-181.5" style="stroke-width: 1; fill: none; stroke: black;" stroke-dasharray="7,4" marker-end="url(#arrow-filled)"></path></svg>