<?xml version="1.0" encoding="UTF-8" standalone="no"?>
<!DOCTYPE svg PUBLIC "-//W3C//DTD SVG 1.1//EN"
 "http://www.w3.org/Graphics/SVG/1.1/DTD/svg11.dtd">
<!-- Generated by graphviz version 2.40.1 (20161225.0304)
 -->
<!-- Title: G Pages: 1 -->
<svg width="783pt" height="571pt"
 viewBox="0.00 0.00 783.49 571.00" xmlns="http://www.w3.org/2000/svg" xmlns:xlink="http://www.w3.org/1999/xlink">
<g id="graph0" class="graph" transform="scale(1 1) rotate(0) translate(4 567)">
<title>G</title>
<polygon fill="#ffffff" stroke="transparent" points="-4,4 -4,-567 779.4861,-567 779.4861,4 -4,4"/>
<!-- A0 -->
<g id="node1" class="node">
<title>A0</title>
<g transform="translate(39.838,-217)" style="fill:none;stroke:black;stroke-width:1px"><circle cx="0" cy="-20" r="7.5" />
                <line x1="0" y1="-12.5" x2="0" y2="5" />
                <line x1="-15" y1="-5" x2="15" y2="-5" />
                <line x1="0" y1="5" x2="-15" y2="17" />
                <line x1="0" y1="5" x2="15" y2="17" /></g>
<text text-anchor="middle" x="39.838" y="-192" font-family="Helvetica,sans-Serif" font-size="10.00" fill="#000000">User</text>
</g>
<!-- A1 -->
<g id="node2" class="node">
<title>A1</title>
<ellipse fill="none" stroke="#000000" cx="189.4045" cy="-543" rx="39.4434" ry="18"/>
<text text-anchor="middle" x="189.4045" y="-540" font-family="Helvetica,sans-Serif" font-size="10.00" fill="#000000">Register</text>
</g>
<!-- A0&#45;&gt;A1 -->
<g id="edge1" class="edge">
<title>A0&#45;&gt;A1</title>
<path fill="none" stroke="#000000" d="M42.1471,-256.257C47.7401,-316.2324 66.722,-437.0062 130.676,-513 137.7532,-521.4095 147.7812,-527.7307 157.5516,-532.3471"/>
</g>
<!-- A3 -->
<g id="node4" class="node">
<title>A3</title>
<ellipse fill="none" stroke="#000000" cx="189.4045" cy="-486" rx="31.5864" ry="18"/>
<text text-anchor="middle" x="189.4045" y="-483" font-family="Helvetica,sans-Serif" font-size="10.00" fill="#000000">Login</text>
</g>
<!-- A0&#45;&gt;A3 -->
<g id="edge3" class="edge">
<title>A0&#45;&gt;A3</title>
<path fill="none" stroke="#000000" d="M48.1865,-256.0948C60.3204,-302.7166 86.3589,-384.6732 130.676,-442 140.4939,-454.7 154.8742,-465.5574 166.9474,-473.3094"/>
</g>
<!-- A5 -->
<g id="node6" class="node">
<title>A5</title>
<ellipse fill="none" stroke="#000000" cx="329.0616" cy="-329" rx="55.8573" ry="18"/>
<text text-anchor="middle" x="329.0616" y="-326" font-family="Helvetica,sans-Serif" font-size="10.00" fill="#000000">View User Info</text>
</g>
<!-- A0&#45;&gt;A5 -->
<g id="edge5" class="edge">
<title>A0&#45;&gt;A5</title>
<path fill="none" stroke="#000000" d="M79.6839,-243.7404C95.2519,-252.414 113.4698,-261.8429 130.676,-269 181.8396,-290.2821 243.2383,-307.6718 284.043,-318.1507"/>
</g>
<!-- A7 -->
<g id="node8" class="node">
<title>A7</title>
<ellipse fill="none" stroke="#000000" cx="189.4045" cy="-126" rx="54.0149" ry="18"/>
<text text-anchor="middle" x="189.4045" y="-123" font-family="Helvetica,sans-Serif" font-size="10.00" fill="#000000">View Item List</text>
</g>
<!-- A0&#45;&gt;A7 -->
<g id="edge7" class="edge">
<title>A0&#45;&gt;A7</title>
<path fill="none" stroke="#000000" d="M79.7679,-187.8044C95.1941,-176.1095 113.2939,-163.2596 130.676,-153 138.5038,-148.3797 147.2576,-143.9801 155.5677,-140.1241"/>
</g>
<!-- A9 -->
<g id="node10" class="node">
<title>A9</title>
<ellipse fill="none" stroke="#000000" cx="189.4045" cy="-242" rx="55.8585" ry="18"/>
<text text-anchor="middle" x="189.4045" y="-239" font-family="Helvetica,sans-Serif" font-size="10.00" fill="#000000">Post New Item</text>
</g>
<!-- A0&#45;&gt;A9 -->
<g id="edge9" class="edge">
<title>A0&#45;&gt;A9</title>
<path fill="none" stroke="#000000" d="M79.5264,-225.8378C97.6138,-228.4983 119.2435,-231.6799 138.5096,-234.5138"/>
</g>
<!-- A12 -->
<g id="node13" class="node">
<title>A12</title>
<ellipse fill="none" stroke="#000000" cx="189.4045" cy="-180" rx="47.8173" ry="18"/>
<text text-anchor="middle" x="189.4045" y="-177" font-family="Helvetica,sans-Serif" font-size="10.00" fill="#000000">Modify Item</text>
</g>
<!-- A0&#45;&gt;A12 -->
<g id="edge14" class="edge">
<title>A0&#45;&gt;A12</title>
<path fill="none" stroke="#000000" d="M79.5264,-209.3858C101.4217,-203.5301 128.5077,-196.2862 150.3084,-190.4559"/>
</g>
<!-- A13 -->
<g id="node14" class="node">
<title>A13</title>
<ellipse fill="none" stroke="#000000" cx="189.4045" cy="-72" rx="54.8597" ry="18"/>
<text text-anchor="middle" x="189.4045" y="-69" font-family="Helvetica,sans-Serif" font-size="10.00" fill="#000000">View Item Info</text>
</g>
<!-- A0&#45;&gt;A13 -->
<g id="edge19" class="edge">
<title>A0&#45;&gt;A13</title>
<path fill="none" stroke="#000000" d="M60.2217,-183.8729C76.5235,-157.5778 101.4415,-122.5866 130.676,-99 137.2263,-93.7152 144.9792,-89.2095 152.6679,-85.4801"/>
</g>
<!-- A14 -->
<g id="node15" class="node">
<title>A14</title>
<ellipse fill="none" stroke="#000000" cx="189.4045" cy="-18" rx="35.4469" ry="18"/>
<text text-anchor="middle" x="189.4045" y="-15" font-family="Helvetica,sans-Serif" font-size="10.00" fill="#000000">Logout</text>
</g>
<!-- A0&#45;&gt;A14 -->
<g id="edge21" class="edge">
<title>A0&#45;&gt;A14</title>
<path fill="none" stroke="#000000" d="M50.7355,-183.8028C64.0322,-145.0326 89.9172,-83.8531 130.676,-45 138.7174,-37.3346 149.3222,-31.56 159.3052,-27.3601"/>
</g>
<!-- A2 -->
<g id="node3" class="node">
<title>A2</title>
<ellipse fill="none" stroke="#000000" cx="479.9469" cy="-545" rx="61.7203" ry="18"/>
<text text-anchor="middle" x="479.9469" y="-542" font-family="Helvetica,sans-Serif" font-size="10.00" fill="#000000">Submit User Info</text>
</g>
<!-- A1&#45;&gt;A2 -->
<g id="edge2" class="edge">
<title>A1&#45;&gt;A2</title>
<path fill="none" stroke="#000000" stroke-dasharray="5,2" d="M228.8907,-543.2718C274.7549,-543.5875 351.3444,-544.1147 407.893,-544.504"/>
<polygon fill="#000000" stroke="#000000" points="418.2067,-544.575 408.1759,-549.006 413.2068,-544.5405 408.207,-544.5061 408.207,-544.5061 408.207,-544.5061 413.2068,-544.5405 408.238,-540.0062 418.2067,-544.575 418.2067,-544.575"/>
<text text-anchor="middle" x="329.0616" y="-547" font-family="Helvetica,sans-Serif" font-size="10.00" fill="#000000">&lt;&lt;include&gt;&gt;</text>
</g>
<!-- A4 -->
<g id="node5" class="node">
<title>A4</title>
<ellipse fill="none" stroke="#000000" cx="479.9469" cy="-491" rx="50.0196" ry="18"/>
<text text-anchor="middle" x="479.9469" y="-488" font-family="Helvetica,sans-Serif" font-size="10.00" fill="#000000">Authenticate</text>
</g>
<!-- A3&#45;&gt;A4 -->
<g id="edge4" class="edge">
<title>A3&#45;&gt;A4</title>
<path fill="none" stroke="#000000" stroke-dasharray="5,2" d="M221.0507,-486.5446C268.53,-487.3617 359.0607,-488.9196 419.4781,-489.9594"/>
<polygon fill="#000000" stroke="#000000" points="429.6473,-490.1344 419.5713,-494.4616 424.648,-490.0483 419.6488,-489.9622 419.6488,-489.9622 419.6488,-489.9622 424.648,-490.0483 419.7263,-485.4629 429.6473,-490.1344 429.6473,-490.1344"/>
<text text-anchor="middle" x="329.0616" y="-492" font-family="Helvetica,sans-Serif" font-size="10.00" fill="#000000">&lt;&lt;include&gt;&gt;</text>
</g>
<!-- A6 -->
<g id="node7" class="node">
<title>A6</title>
<ellipse fill="none" stroke="#000000" cx="715.2098" cy="-287" rx="52.6838" ry="18"/>
<text text-anchor="middle" x="715.2098" y="-284" font-family="Helvetica,sans-Serif" font-size="10.00" fill="#000000">Get User Info</text>
</g>
<!-- A5&#45;&gt;A6 -->
<g id="edge6" class="edge">
<title>A5&#45;&gt;A6</title>
<path fill="none" stroke="#000000" stroke-dasharray="5,2" d="M383.8158,-325.0609C444.2117,-320.4469 544.2094,-312.0119 629.9335,-301 639.1131,-299.8208 648.8203,-298.397 658.2679,-296.9149"/>
<polygon fill="#000000" stroke="#000000" points="668.3803,-295.2927 659.2193,-301.3199 663.4434,-296.0847 658.5065,-296.8767 658.5065,-296.8767 658.5065,-296.8767 663.4434,-296.0847 657.7937,-292.4335 668.3803,-295.2927 668.3803,-295.2927"/>
<text text-anchor="middle" x="479.9469" y="-325" font-family="Helvetica,sans-Serif" font-size="10.00" fill="#000000">&lt;&lt;include&gt;&gt;</text>
</g>
<!-- A8 -->
<g id="node9" class="node">
<title>A8</title>
<ellipse fill="none" stroke="#000000" cx="479.9469" cy="-63" rx="51.6861" ry="18"/>
<text text-anchor="middle" x="479.9469" y="-60" font-family="Helvetica,sans-Serif" font-size="10.00" fill="#000000">Get Item Info</text>
</g>
<!-- A7&#45;&gt;A8 -->
<g id="edge8" class="edge">
<title>A7&#45;&gt;A8</title>
<path fill="none" stroke="#000000" stroke-dasharray="5,2" d="M226.2358,-112.6359C233.9191,-108.8998 241.6459,-104.3621 248.133,-99 262.8674,-86.8209 256.1566,-72.7883 273.133,-64 321.0559,-39.1913 383.991,-43.1674 427.7941,-50.681"/>
<polygon fill="#000000" stroke="#000000" points="437.6659,-52.4892 427.0187,-55.1137 432.7477,-51.5883 427.8295,-50.6874 427.8295,-50.6874 427.8295,-50.6874 432.7477,-51.5883 428.6404,-46.261 437.6659,-52.4892 437.6659,-52.4892"/>
<text text-anchor="middle" x="329.0616" y="-67" font-family="Helvetica,sans-Serif" font-size="10.00" fill="#000000">&lt;&lt;include&gt;&gt;</text>
</g>
<!-- A9&#45;&gt;A6 -->
<g id="edge12" class="edge">
<title>A9&#45;&gt;A6</title>
<path fill="none" stroke="#000000" stroke-dasharray="5,2" d="M235.2778,-252.493C247.5209,-254.9697 260.7815,-257.3628 273.133,-259 407.5622,-276.8188 566.5421,-283.3749 652.4729,-285.7297"/>
<polygon fill="#000000" stroke="#000000" points="662.5836,-285.9966 652.4684,-290.2311 657.5854,-285.8646 652.5871,-285.7327 652.5871,-285.7327 652.5871,-285.7327 657.5854,-285.8646 652.7059,-281.2342 662.5836,-285.9966 662.5836,-285.9966"/>
<text text-anchor="middle" x="479.9469" y="-284" font-family="Helvetica,sans-Serif" font-size="10.00" fill="#000000">&lt;&lt;include&gt;&gt;</text>
</g>
<!-- A10 -->
<g id="node11" class="node">
<title>A10</title>
<ellipse fill="none" stroke="#000000" cx="479.9469" cy="-233" rx="69.9133" ry="18"/>
<text text-anchor="middle" x="479.9469" y="-230" font-family="Helvetica,sans-Serif" font-size="10.00" fill="#000000">Check Current User</text>
</g>
<!-- A9&#45;&gt;A10 -->
<g id="edge10" class="edge">
<title>A9&#45;&gt;A10</title>
<path fill="none" stroke="#000000" stroke-dasharray="5,2" d="M245.4982,-242.886C284.614,-243.2167 338.0075,-243.096 384.9902,-241 391.1726,-240.7242 397.5756,-240.3582 404.0027,-239.9342"/>
<polygon fill="#000000" stroke="#000000" points="414.0943,-239.2249 404.4344,-244.4151 409.1066,-239.5755 404.1189,-239.9262 404.1189,-239.9262 404.1189,-239.9262 409.1066,-239.5755 403.8033,-235.4372 414.0943,-239.2249 414.0943,-239.2249"/>
<text text-anchor="middle" x="329.0616" y="-246" font-family="Helvetica,sans-Serif" font-size="10.00" fill="#000000">&lt;&lt;include&gt;&gt;</text>
</g>
<!-- A11 -->
<g id="node12" class="node">
<title>A11</title>
<ellipse fill="none" stroke="#000000" cx="479.9469" cy="-177" rx="60.7227" ry="18"/>
<text text-anchor="middle" x="479.9469" y="-174" font-family="Helvetica,sans-Serif" font-size="10.00" fill="#000000">Submit Item Info</text>
</g>
<!-- A9&#45;&gt;A11 -->
<g id="edge13" class="edge">
<title>A9&#45;&gt;A11</title>
<path fill="none" stroke="#000000" stroke-dasharray="5,2" d="M237.6463,-232.6798C249.2621,-230.4637 261.6366,-228.1261 273.133,-226 322.7936,-216.8158 335.8953,-217.8411 384.9902,-206 399.6943,-202.4536 415.4748,-197.9311 429.8662,-193.5183"/>
<polygon fill="#000000" stroke="#000000" points="439.5772,-190.4942 431.3675,-197.764 434.8034,-191.9809 430.0295,-193.4675 430.0295,-193.4675 430.0295,-193.4675 434.8034,-191.9809 428.6915,-189.171 439.5772,-190.4942 439.5772,-190.4942"/>
<text text-anchor="middle" x="329.0616" y="-229" font-family="Helvetica,sans-Serif" font-size="10.00" fill="#000000">&lt;&lt;include&gt;&gt;</text>
</g>
<!-- A10&#45;&gt;A6 -->
<g id="edge11" class="edge">
<title>A10&#45;&gt;A6</title>
<path fill="none" stroke="#000000" stroke-dasharray="5,2" d="M539.3985,-242.5289C567.0739,-247.3651 600.3458,-253.7516 629.9335,-261 642.2701,-264.0222 655.4603,-267.7785 667.6891,-271.4877"/>
<polygon fill="#000000" stroke="#000000" points="677.2556,-274.4374 666.3736,-275.7911 672.4775,-272.9642 667.6995,-271.4909 667.6995,-271.4909 667.6995,-271.4909 672.4775,-272.9642 669.0254,-267.1907 677.2556,-274.4374 677.2556,-274.4374"/>
<text text-anchor="middle" x="602.4185" y="-264" font-family="Helvetica,sans-Serif" font-size="10.00" fill="#000000">&lt;&lt;include&gt;&gt;</text>
</g>
<!-- A12&#45;&gt;A6 -->
<g id="edge16" class="edge">
<title>A12&#45;&gt;A6</title>
<path fill="none" stroke="#000000" stroke-dasharray="5,2" d="M221.5185,-166.4771C286.0762,-141.3704 435.2066,-93.9374 549.9035,-138 614.513,-162.8208 669.6448,-225.8644 696.9262,-261.4833"/>
<polygon fill="#000000" stroke="#000000" points="702.9411,-269.4873 693.336,-264.1964 699.9372,-265.4902 696.9334,-261.493 696.9334,-261.493 696.9334,-261.493 699.9372,-265.4902 700.5309,-258.7896 702.9411,-269.4873 702.9411,-269.4873"/>
<text text-anchor="middle" x="479.9469" y="-141" font-family="Helvetica,sans-Serif" font-size="10.00" fill="#000000">&lt;&lt;include&gt;&gt;</text>
</g>
<!-- A12&#45;&gt;A8 -->
<g id="edge17" class="edge">
<title>A12&#45;&gt;A8</title>
<path fill="none" stroke="#000000" stroke-dasharray="5,2" d="M225.8046,-168.1049C233.8604,-164.2281 241.856,-159.2603 248.133,-153 266.8588,-134.3238 252.1555,-115.1059 273.133,-99 279.0936,-94.4236 363.2426,-80.7976 422.3417,-71.6846"/>
<polygon fill="#000000" stroke="#000000" points="432.327,-70.1509 423.1261,-76.1169 427.385,-70.91 422.4429,-71.6691 422.4429,-71.6691 422.4429,-71.6691 427.385,-70.91 421.7598,-67.2212 432.327,-70.1509 432.327,-70.1509"/>
<text text-anchor="middle" x="329.0616" y="-102" font-family="Helvetica,sans-Serif" font-size="10.00" fill="#000000">&lt;&lt;include&gt;&gt;</text>
</g>
<!-- A12&#45;&gt;A10 -->
<g id="edge15" class="edge">
<title>A12&#45;&gt;A10</title>
<path fill="none" stroke="#000000" stroke-dasharray="5,2" d="M237.4667,-179.2172C277.454,-179.5666 335.6091,-182.4073 384.9902,-194 386.3831,-194.327 410.2843,-204.1444 433.7558,-213.8462"/>
<polygon fill="#000000" stroke="#000000" points="443.0265,-217.6811 432.0658,-218.0168 438.4062,-215.7699 433.7859,-213.8586 433.7859,-213.8586 433.7859,-213.8586 438.4062,-215.7699 435.5061,-209.7003 443.0265,-217.6811 443.0265,-217.6811"/>
<text text-anchor="middle" x="329.0616" y="-197" font-family="Helvetica,sans-Serif" font-size="10.00" fill="#000000">&lt;&lt;include&gt;&gt;</text>
</g>
<!-- A12&#45;&gt;A11 -->
<g id="edge18" class="edge">
<title>A12&#45;&gt;A11</title>
<path fill="none" stroke="#000000" stroke-dasharray="5,2" d="M226.5455,-168.6018C240.9458,-164.7342 257.6646,-160.9102 273.133,-159 322.4725,-152.9069 335.4938,-154.3501 384.9902,-159 396.8668,-160.1157 409.4703,-162 421.4809,-164.1398"/>
<polygon fill="#000000" stroke="#000000" points="431.4014,-165.9862 420.7468,-168.5804 426.4858,-165.0713 421.5702,-164.1564 421.5702,-164.1564 421.5702,-164.1564 426.4858,-165.0713 422.3936,-159.7323 431.4014,-165.9862 431.4014,-165.9862"/>
<text text-anchor="middle" x="329.0616" y="-162" font-family="Helvetica,sans-Serif" font-size="10.00" fill="#000000">&lt;&lt;include&gt;&gt;</text>
</g>
<!-- A13&#45;&gt;A8 -->
<g id="edge20" class="edge">
<title>A13&#45;&gt;A8</title>
<path fill="none" stroke="#000000" stroke-dasharray="5,2" d="M222.7253,-57.6515C231.1306,-53.7686 240.0581,-49.4126 248.133,-45 259.7092,-38.6741 260.472,-32.7046 273.133,-29 320.8467,-15.0388 336.0088,-20.4953 384.9902,-29 403.306,-32.1802 422.7611,-38.57 439.2606,-44.9604"/>
<polygon fill="#000000" stroke="#000000" points="448.6028,-48.6988 437.6467,-49.1614 443.9606,-46.8412 439.3185,-44.9835 439.3185,-44.9835 439.3185,-44.9835 443.9606,-46.8412 440.9904,-40.8056 448.6028,-48.6988 448.6028,-48.6988"/>
<text text-anchor="middle" x="329.0616" y="-32" font-family="Helvetica,sans-Serif" font-size="10.00" fill="#000000">&lt;&lt;include&gt;&gt;</text>
</g>
<!-- A15 -->
<g id="node16" class="node">
<title>A15</title>
<g transform="translate(189.4045,-394)" style="fill:none;stroke:black;stroke-width:1px"><circle cx="0" cy="-20" r="7.5" />
                <line x1="0" y1="-12.5" x2="0" y2="5" />
                <line x1="-15" y1="-5" x2="15" y2="-5" />
                <line x1="0" y1="5" x2="-15" y2="17" />
                <line x1="0" y1="5" x2="15" y2="17" /></g>
<text text-anchor="middle" x="189.4045" y="-369" font-family="Helvetica,sans-Serif" font-size="10.00" fill="#000000">Administrator</text>
</g>
<!-- A16 -->
<g id="node17" class="node">
<title>A16</title>
<ellipse fill="none" stroke="#000000" cx="479.9469" cy="-437" rx="67.9192" ry="18"/>
<text text-anchor="middle" x="479.9469" y="-434" font-family="Helvetica,sans-Serif" font-size="10.00" fill="#000000">Set New Item Type</text>
</g>
<!-- A15&#45;&gt;A16 -->
<g id="edge22" class="edge">
<title>A15&#45;&gt;A16</title>
<path fill="none" stroke="#000000" d="M248.2001,-405.0946C298.0275,-411.9545 369.1955,-421.7525 419.4899,-428.6767"/>
</g>
<!-- A18 -->
<g id="node19" class="node">
<title>A18</title>
<ellipse fill="none" stroke="#000000" cx="479.9469" cy="-383" rx="46.4762" ry="18"/>
<text text-anchor="middle" x="479.9469" y="-380" font-family="Helvetica,sans-Serif" font-size="10.00" fill="#000000">Grant User</text>
</g>
<!-- A15&#45;&gt;A18 -->
<g id="edge24" class="edge">
<title>A15&#45;&gt;A18</title>
<path fill="none" stroke="#000000" d="M248.2001,-394.1669C302.9191,-391.5302 383.3742,-387.6534 433.6587,-385.2304"/>
</g>
<!-- A17 -->
<g id="node18" class="node">
<title>A17</title>
<ellipse fill="none" stroke="#000000" cx="715.2098" cy="-437" rx="60.0534" ry="18"/>
<text text-anchor="middle" x="715.2098" y="-434" font-family="Helvetica,sans-Serif" font-size="10.00" fill="#000000">Apply Item Type</text>
</g>
<!-- A16&#45;&gt;A17 -->
<g id="edge23" class="edge">
<title>A16&#45;&gt;A17</title>
<path fill="none" stroke="#000000" stroke-dasharray="5,2" d="M547.9947,-437C578.3539,-437 614.1065,-437 644.7435,-437"/>
<polygon fill="#000000" stroke="#000000" points="654.9221,-437 644.9222,-441.5001 649.9221,-437 644.9221,-437.0001 644.9221,-437.0001 644.9221,-437.0001 649.9221,-437 644.9221,-432.5001 654.9221,-437 654.9221,-437"/>
<text text-anchor="middle" x="602.4185" y="-440" font-family="Helvetica,sans-Serif" font-size="10.00" fill="#000000">&lt;&lt;include&gt;&gt;</text>
</g>
<!-- A18&#45;&gt;A6 -->
<g id="edge25" class="edge">
<title>A18&#45;&gt;A6</title>
<path fill="none" stroke="#000000" stroke-dasharray="5,2" d="M524.4488,-377.7402C555.1176,-372.9726 596.2557,-364.2738 629.9335,-349 651.3688,-339.2785 672.7853,-323.6808 688.794,-310.5626"/>
<polygon fill="#000000" stroke="#000000" points="696.644,-303.9729 691.8781,-313.849 692.8145,-307.1877 688.9849,-310.4024 688.9849,-310.4024 688.9849,-310.4024 692.8145,-307.1877 686.0916,-306.9558 696.644,-303.9729 696.644,-303.9729"/>
<text text-anchor="middle" x="602.4185" y="-369" font-family="Helvetica,sans-Serif" font-size="10.00" fill="#000000">&lt;&lt;include&gt;&gt;</text>
</g>
</g>
</svg>
